<?xml version="1.0" encoding="utf-8"?>
<!-- Generator: Adobe Illustrator 26.0.0, SVG Export Plug-In . SVG Version: 6.00 Build 0)  -->
<svg version="1.1" id="Layer_1" xmlns="http://www.w3.org/2000/svg" xmlns:xlink="http://www.w3.org/1999/xlink" x="0px" y="0px"
	 viewBox="0 0 160 160" style="enable-background:new 0 0 160 160;" xml:space="preserve">
<style type="text/css">
	.st0{fill:url(#SVGID_1_);}
	.st1{fill:url(#SVGID_00000111887794589483302580000002060878160244590008_);}
	.st2{fill:url(#SVGID_00000183941981001558970010000018176655612074842778_);}
	.st3{fill:url(#SVGID_00000126320693936534155710000000010341304014020242_);}
	.st4{fill:url(#SVGID_00000124137524646466086830000010667032743378012070_);}
	.st5{fill:url(#SVGID_00000029041000311947427110000008555508620141969833_);}
	.st6{fill:url(#SVGID_00000006706353262678839400000003091228922684818353_);}
	.st7{fill:url(#SVGID_00000003091546887216000280000004866139563404833194_);}
	.st8{fill:url(#SVGID_00000114786975663180374780000012329187164019666080_);}
</style>
<g>
	<g>
		<g>
			<linearGradient id="SVGID_1_" gradientUnits="userSpaceOnUse" x1="6.2411" y1="129.6086" x2="153.5531" y2="129.6086">
				<stop  offset="0" style="stop-color:#A78BFA"/>
				<stop  offset="1" style="stop-color:#6D5EF9"/>
			</linearGradient>
			<path class="st0" d="M31.42,132.48c-0.7-1.05-1.14-2.3-1.22-3.65c-0.19-3.43-1.61-6.5-3.8-8.81c-0.34-0.36-0.7-0.7-1.07-1.02
				c-2.63-2.25-6.1-3.52-9.83-3.31c-7.69,0.43-13.57,7.01-13.14,14.7c0.43,7.69,7.01,13.57,14.7,13.14
				c3.73-0.21,7.03-1.87,9.39-4.39c-0.04-0.04-0.08-0.08-0.11-0.12c-1.64-1.73-2.85-3.8-3.54-6.05c-1.15,2.23-3.42,3.82-6.11,3.97
				c-4.04,0.23-7.51-2.87-7.74-6.91c-0.23-4.04,2.87-7.51,6.91-7.74c2.69-0.15,5.12,1.17,6.52,3.26c0.7,1.05,1.14,2.3,1.22,3.65
				c0.19,3.43,1.61,6.5,3.8,8.81c0.34,0.36,0.7,0.7,1.07,1.02c2.3,1.96,5.23,3.18,8.41,3.32l0.76-6.59
				C35.08,135.8,32.76,134.5,31.42,132.48z"/>
		</g>
		
			<linearGradient id="SVGID_00000128460795932802846710000012521948693955758502_" gradientUnits="userSpaceOnUse" x1="6.2411" y1="130.3014" x2="153.5531" y2="130.3014">
			<stop  offset="0" style="stop-color:#A78BFA"/>
			<stop  offset="1" style="stop-color:#6D5EF9"/>
		</linearGradient>
		<path style="fill:url(#SVGID_00000128460795932802846710000012521948693955758502_);" d="M47.63,137.37l6.68-20.28h7.11
			l-9.78,26.44h-8.11l-9.74-26.44h7.16L47.63,137.37z"/>
		
			<linearGradient id="SVGID_00000061444258943991129820000003184997024519272070_" gradientUnits="userSpaceOnUse" x1="6.2411" y1="129.8719" x2="153.5531" y2="129.8719">
			<stop  offset="0" style="stop-color:#A78BFA"/>
			<stop  offset="1" style="stop-color:#6D5EF9"/>
		</linearGradient>
		<path style="fill:url(#SVGID_00000061444258943991129820000003184997024519272070_);" d="M121.34,122.67
			c1.07-2.07,2.51-3.66,4.34-4.77c1.83-1.11,3.87-1.67,6.13-1.67c1.97,0,3.7,0.4,5.18,1.19c1.48,0.8,2.66,1.8,3.56,3.01v-3.77h6.73
			v26.44h-6.73v-3.87c-0.86,1.24-2.04,2.27-3.56,3.08c-1.51,0.81-3.25,1.22-5.23,1.22c-2.23,0-4.26-0.57-6.09-1.72
			c-1.83-1.15-3.28-2.76-4.34-4.84c-1.07-2.08-1.6-4.48-1.6-7.18C119.74,127.1,120.27,124.73,121.34,122.67z M139.6,125.7
			c-0.64-1.16-1.5-2.05-2.58-2.67c-1.08-0.62-2.24-0.93-3.48-0.93c-1.24,0-2.39,0.3-3.44,0.91c-1.05,0.6-1.9,1.49-2.55,2.65
			c-0.65,1.16-0.98,2.54-0.98,4.13c0,1.59,0.33,2.98,0.98,4.18c0.65,1.19,1.51,2.11,2.58,2.74c1.07,0.64,2.2,0.95,3.41,0.95
			c1.24,0,2.4-0.31,3.48-0.93c1.08-0.62,1.94-1.51,2.58-2.67c0.64-1.16,0.95-2.55,0.95-4.18
			C140.55,128.25,140.23,126.86,139.6,125.7z"/>
		
			<linearGradient id="SVGID_00000031909898535059720310000004603957096277610650_" gradientUnits="userSpaceOnUse" x1="6.2411" y1="130.1105" x2="153.5531" y2="130.1105">
			<stop  offset="0" style="stop-color:#A78BFA"/>
			<stop  offset="1" style="stop-color:#6D5EF9"/>
		</linearGradient>
		<path style="fill:url(#SVGID_00000031909898535059720310000004603957096277610650_);" d="M113.75,119.68
			c1.94,1.99,2.91,4.77,2.91,8.33v15.51h-6.68v-14.6c0-2.1-0.52-3.71-1.58-4.84c-1.05-1.13-2.48-1.69-4.3-1.69
			c-1.85,0-3.3,0.57-4.37,1.69c-1.07,1.13-1.6,2.74-1.6,4.84v14.6h-6.68v-26.44h6.68v3.29c0.89-1.15,2.03-2.04,3.41-2.7
			c1.38-0.65,2.9-0.98,4.56-0.98C109.26,116.7,111.81,117.69,113.75,119.68z"/>
		<g>
			
				<linearGradient id="SVGID_00000127036673549097695510000016120561564291198346_" gradientUnits="userSpaceOnUse" x1="6.2411" y1="130.3014" x2="153.5531" y2="130.3014">
				<stop  offset="0" style="stop-color:#A78BFA"/>
				<stop  offset="1" style="stop-color:#6D5EF9"/>
			</linearGradient>
			
				<rect x="150.98" y="117.08" style="fill:url(#SVGID_00000127036673549097695510000016120561564291198346_);" width="6.68" height="26.44"/>
			
				<linearGradient id="SVGID_00000008133735232126290320000012510152944653851324_" gradientUnits="userSpaceOnUse" x1="6.2411" y1="109.54" x2="153.5531" y2="109.54">
				<stop  offset="0" style="stop-color:#A78BFA"/>
				<stop  offset="1" style="stop-color:#6D5EF9"/>
			</linearGradient>
			<path style="fill:url(#SVGID_00000008133735232126290320000012510152944653851324_);" d="M154.7,113.93h-3.72v-8.78h6.68v5.82
				C157.66,112.61,156.34,113.93,154.7,113.93z"/>
		</g>
		<g>
			<g>
				
					<linearGradient id="SVGID_00000038387333821988797400000011411476261123186604_" gradientUnits="userSpaceOnUse" x1="6.2411" y1="130.2287" x2="153.5531" y2="130.2287">
					<stop  offset="0" style="stop-color:#A78BFA"/>
					<stop  offset="1" style="stop-color:#6D5EF9"/>
				</linearGradient>
				<path style="fill:url(#SVGID_00000038387333821988797400000011411476261123186604_);" d="M60.72,130.13
					c0-7.98,6.1-13.41,14.07-13.41c7.82,0,13.82,5.39,13.57,14.99H67.53c0.66,4.42,3.45,6.91,7.21,6.91c3.15,0,5.79-1.52,6.76-4.47
					h6.55c-1.37,5.69-6.5,9.6-13.52,9.6C66.82,143.74,60.72,138.2,60.72,130.13z M81.65,127.38c-0.66-3.76-3.4-5.69-6.81-5.69
					c-2.95,0-6.35,1.42-7.27,5.69H81.65z"/>
			</g>
		</g>
	</g>
	<g>
		<g>
			<g>
				<g>
					
						<linearGradient id="SVGID_00000173882812285977905630000000479215354219821995_" gradientUnits="userSpaceOnUse" x1="81.5349" y1="81.7856" x2="65.8044" y2="47.0785">
						<stop  offset="0" style="stop-color:#6D5EF9"/>
						<stop  offset="1" style="stop-color:#A78BFA"/>
					</linearGradient>
					<path style="fill:url(#SVGID_00000173882812285977905630000000479215354219821995_);" d="M109.88,61.14H94.26L81.77,36.17
						c-1.86-3.7-5.47-5.93-9.6-5.93c-4.16,0-7.73,2.24-9.6,5.93L50.09,61.14H34.47l15.62-31.21c4.19-8.42,12.67-13.67,22.08-13.67
						c9.41,0,17.89,5.25,22.08,13.67L109.88,61.14z"/>
				</g>
			</g>
			<g>
				<g>
					
						<linearGradient id="SVGID_00000020398643862468027470000012360681460951465118_" gradientUnits="userSpaceOnUse" x1="100.8928" y1="73.0119" x2="85.1622" y2="38.3048">
						<stop  offset="0" style="stop-color:#6D5EF9"/>
						<stop  offset="1" style="stop-color:#A78BFA"/>
					</linearGradient>
					<path style="fill:url(#SVGID_00000020398643862468027470000012360681460951465118_);" d="M125.53,61.14l-11.15,22.27
						c-3.57,7.17-10.81,11.65-18.85,11.65c-0.03,0-0.03,0-0.03,0c-8.04,0-15.28-4.47-18.85-11.65L65.49,61.14h15.65l7.98,16
						c1.24,2.48,3.63,3.94,6.37,3.94h0.03c2.73,0,5.12-1.46,6.37-3.94l8.01-16H125.53z"/>
				</g>
			</g>
		</g>
	</g>
</g>
</svg>
