<?xml version="1.0" encoding="utf-8"?>
<!-- Generator: Adobe Illustrator 26.0.0, SVG Export Plug-In . SVG Version: 6.00 Build 0)  -->
<svg version="1.1" id="Layer_1" xmlns="http://www.w3.org/2000/svg" xmlns:xlink="http://www.w3.org/1999/xlink" x="0px" y="0px"
	 viewBox="0 0 160 160" style="enable-background:new 0 0 160 160;" xml:space="preserve">
<style type="text/css">
	.st0{fill:#FFFFFF;}
</style>
<g>
	<g>
		<g>
			<g>
				<g>
					<g>
						<path class="st0" d="M109.93,61.1H94.28L81.78,36.09c-1.87-3.7-5.48-5.94-9.61-5.94c-4.17,0-7.75,2.24-9.61,5.94L50.04,61.1
							H34.39l15.65-31.27c4.2-8.43,12.69-13.69,22.12-13.69c9.43,0,17.92,5.26,22.12,13.69L109.93,61.1z"/>
					</g>
				</g>
				<g>
					<g>
						<path class="st0" d="M125.61,61.1l-11.17,22.31c-3.58,7.19-10.83,11.67-18.89,11.67c-0.03,0-0.03,0-0.03,0
							c-8.06,0-15.31-4.48-18.89-11.67L65.47,61.1h15.68l8,16.02c1.24,2.49,3.64,3.95,6.38,3.95h0.03c2.74,0,5.13-1.46,6.38-3.95
							l8.03-16.02H125.61z"/>
					</g>
				</g>
			</g>
		</g>
		<g>
			<g>
				<path class="st0" d="M31.33,132.57c-0.71-1.05-1.15-2.3-1.22-3.66c-0.19-3.43-1.61-6.51-3.81-8.82c-0.34-0.36-0.7-0.7-1.07-1.02
					c-2.64-2.25-6.11-3.53-9.85-3.32c-7.7,0.43-13.59,7.03-13.16,14.73c0.43,7.7,7.03,13.59,14.73,13.16
					c3.73-0.21,7.04-1.87,9.41-4.4c-0.04-0.04-0.08-0.08-0.11-0.12c-1.64-1.73-2.85-3.81-3.55-6.06c-1.15,2.24-3.43,3.83-6.12,3.98
					c-4.05,0.23-7.52-2.88-7.75-6.93c-0.23-4.05,2.88-7.52,6.93-7.75c2.69-0.15,5.13,1.17,6.53,3.27c0.71,1.05,1.15,2.3,1.22,3.66
					c0.19,3.43,1.61,6.51,3.81,8.82c0.34,0.36,0.7,0.7,1.07,1.02c2.3,1.96,5.24,3.18,8.43,3.32l0.77-6.6
					C35,135.89,32.68,134.59,31.33,132.57z"/>
			</g>
			<path class="st0" d="M47.58,137.46l6.69-20.32h7.12l-9.8,26.49h-8.13l-9.75-26.49h7.17L47.58,137.46z"/>
			<path class="st0" d="M121.41,122.74c1.07-2.07,2.52-3.66,4.35-4.78c1.83-1.12,3.88-1.67,6.14-1.67c1.98,0,3.71,0.4,5.19,1.2
				c1.48,0.8,2.67,1.8,3.56,3.01v-3.78h6.74v26.49h-6.74v-3.87c-0.86,1.24-2.05,2.27-3.56,3.08c-1.51,0.81-3.26,1.22-5.24,1.22
				c-2.23,0-4.26-0.57-6.1-1.72c-1.83-1.15-3.28-2.76-4.35-4.85c-1.07-2.09-1.6-4.49-1.6-7.2
				C119.81,127.19,120.34,124.81,121.41,122.74z M139.7,125.78c-0.64-1.16-1.5-2.06-2.58-2.68c-1.08-0.62-2.25-0.93-3.49-0.93
				c-1.24,0-2.39,0.3-3.44,0.91c-1.05,0.61-1.91,1.49-2.56,2.65c-0.65,1.16-0.98,2.54-0.98,4.14c0,1.59,0.33,2.99,0.98,4.18
				c0.65,1.2,1.51,2.11,2.58,2.75c1.07,0.64,2.21,0.96,3.42,0.96c1.24,0,2.41-0.31,3.49-0.93c1.08-0.62,1.94-1.51,2.58-2.68
				c0.64-1.16,0.96-2.56,0.96-4.18C140.66,128.33,140.34,126.94,139.7,125.78z"/>
			<path class="st0" d="M113.81,119.75c1.94,1.99,2.92,4.77,2.92,8.34v15.54h-6.69V129c0-2.1-0.53-3.72-1.58-4.85
				c-1.05-1.13-2.49-1.7-4.3-1.7c-1.85,0-3.31,0.57-4.37,1.7c-1.07,1.13-1.6,2.75-1.6,4.85v14.63h-6.69v-26.49h6.69v3.3
				c0.89-1.15,2.03-2.05,3.42-2.7c1.39-0.65,2.91-0.98,4.57-0.98C109.31,116.76,111.86,117.76,113.81,119.75z"/>
			<g>
				<rect x="151.1" y="117.15" class="st0" width="6.69" height="26.49"/>
				<path class="st0" d="M154.84,113.99h-3.74v-8.8h6.69v5.84C157.8,112.67,156.47,113.99,154.84,113.99z"/>
			</g>
			<g>
				<g>
					<path class="st0" d="M60.69,130.21c0-7.99,6.11-13.44,14.1-13.44c7.84,0,13.84,5.4,13.59,15.01H67.51
						c0.66,4.43,3.46,6.92,7.23,6.92c3.16,0,5.8-1.53,6.77-4.48h6.57c-1.37,5.7-6.51,9.62-13.54,9.62
						C66.8,143.85,60.69,138.31,60.69,130.21z M81.66,127.47c-0.66-3.77-3.41-5.7-6.82-5.7c-2.95,0-6.36,1.42-7.28,5.7H81.66z"/>
				</g>
			</g>
		</g>
	</g>
</g>
</svg>
