<?xml version="1.0" encoding="utf-8"?>
<!-- Generator: Adobe Illustrator 26.0.0, SVG Export Plug-In . SVG Version: 6.00 Build 0)  -->
<svg version="1.1" id="Layer_1" xmlns="http://www.w3.org/2000/svg" xmlns:xlink="http://www.w3.org/1999/xlink" x="0px" y="0px"
	 viewBox="0 0 2000 2000" style="enable-background:new 0 0 2000 2000;" xml:space="preserve">
<style type="text/css">
	.st0{fill:#FFFFFF;}
	.st1{fill:#1A1A1A;}
	.st2{fill:#6D5EF9;}
	.st3{fill:#A78BFA;}
</style>
<g>
	<g>
		<g>
			<path class="st0" d="M736.68,1284.43c-3.82-5.7-6.2-12.46-6.61-19.79c-1.04-18.58-8.72-35.22-20.61-47.74
				c-1.84-1.93-3.77-3.77-5.8-5.5c-14.27-12.17-33.06-19.08-53.27-17.95c-41.66,2.34-73.54,38.01-71.19,79.68
				c2.34,41.66,38.02,73.54,79.68,71.19c20.21-1.14,38.11-10.11,50.92-23.81c-0.21-0.21-0.42-0.43-0.62-0.64
				c-8.88-9.36-15.42-20.62-19.19-32.81c-6.25,12.11-18.56,20.71-33.12,21.53c-21.89,1.23-40.71-15.58-41.94-37.47
				c-1.23-21.89,15.58-40.7,37.47-41.94c14.56-0.82,27.76,6.34,35.33,17.68c3.82,5.7,6.2,12.46,6.61,19.79
				c1.05,18.58,8.72,35.22,20.61,47.74c1.84,1.93,3.77,3.77,5.8,5.5c12.44,10.62,28.33,17.21,45.6,17.97l4.14-35.7
				C756.53,1302.42,743.98,1295.36,736.68,1284.43z"/>
		</g>
		<path class="st0" d="M824.58,1310.92l36.22-109.94h38.54l-53.03,143.31h-43.98l-52.77-143.31h38.8L824.58,1310.92z"/>
		<path class="st0" d="M1224.06,1231.24c5.78-11.21,13.62-19.83,23.54-25.87c9.91-6.04,20.99-9.05,33.24-9.05
			c10.69,0,20.05,2.16,28.07,6.47c8.02,4.31,14.44,9.75,19.27,16.3v-20.44h36.47v143.31h-36.47V1321
			c-4.66,6.73-11.08,12.29-19.27,16.69c-8.19,4.4-17.64,6.6-28.33,6.6c-12.07,0-23.07-3.1-32.98-9.31
			c-9.92-6.21-17.76-14.96-23.54-26.26c-5.78-11.29-8.67-24.27-8.67-38.93C1215.39,1255.3,1218.28,1242.45,1224.06,1231.24z
			 M1323,1247.67c-3.45-6.29-8.11-11.12-13.97-14.49c-5.86-3.36-12.16-5.04-18.88-5.04s-12.93,1.64-18.62,4.91
			c-5.69,3.28-10.31,8.06-13.84,14.36c-3.54,6.3-5.3,13.75-5.3,22.38c0,8.63,1.77,16.17,5.3,22.63c3.53,6.47,8.19,11.43,13.97,14.87
			c5.78,3.45,11.94,5.17,18.5,5.17c6.73,0,13.02-1.68,18.88-5.04c5.86-3.36,10.52-8.19,13.97-14.49c3.45-6.29,5.17-13.84,5.17-22.63
			S1326.45,1253.97,1323,1247.67z"/>
		<path class="st0" d="M1182.92,1215.07c10.52,10.78,15.78,25.83,15.78,45.14v84.07h-36.22v-79.16c0-11.38-2.85-20.13-8.54-26.26
			c-5.69-6.12-13.45-9.18-23.28-9.18c-10,0-17.89,3.06-23.67,9.18c-5.78,6.12-8.67,14.87-8.67,26.26v79.16h-36.22v-143.31h36.22
			v17.85c4.83-6.21,10.99-11.08,18.5-14.62c7.5-3.53,15.73-5.3,24.7-5.3C1158.6,1198.91,1172.39,1204.3,1182.92,1215.07z"/>
		<g>
			<rect x="1384.71" y="1200.98" class="st0" width="36.22" height="143.31"/>
			<path class="st0" d="M1417.97,1183.9h-33.26v-47.6h36.22v44.64C1420.92,1182.58,1419.6,1183.9,1417.97,1183.9z"/>
		</g>
		<g>
			<g>
				<path class="st0" d="M895.51,1271.69c0-43.23,33.05-72.7,76.28-72.7c42.41,0,74.9,29.19,73.52,81.23h-112.9
					c3.58,23.96,18.73,37.45,39.1,37.45c17.08,0,31.39-8.26,36.63-24.23h35.52c-7.44,30.84-35.25,52.05-73.25,52.05
					C928.57,1345.49,895.51,1315.47,895.51,1271.69z M1008.97,1256.82c-3.58-20.38-18.45-30.84-36.9-30.84
					c-15.97,0-34.42,7.71-39.38,30.84H1008.97z"/>
			</g>
		</g>
	</g>
	<g>
		<g>
			<g>
				<g>
					<path class="st0" d="M1161.96,897.77h-84.67l-67.67-135.35c-10.1-20.03-29.63-32.15-52.02-32.15
						c-22.56,0-41.92,12.12-52.02,32.15l-67.67,135.35h-84.67l84.67-169.18c22.73-45.62,68.68-74.07,119.69-74.07
						c51.01,0,96.96,28.45,119.69,74.07L1161.96,897.77z"/>
				</g>
			</g>
			<g>
				<g>
					<path class="st0" d="M1246.77,897.77l-60.43,120.7c-19.36,38.89-58.58,63.13-102.18,63.13c-0.17,0-0.17,0-0.17,0
						c-43.6,0-82.82-24.24-102.18-63.13l-60.43-120.7h84.84l43.26,86.69c6.73,13.47,19.7,21.38,34.51,21.38h0.17
						c14.81,0,27.78-7.91,34.51-21.38l43.43-86.69H1246.77z"/>
				</g>
			</g>
		</g>
	</g>
</g>
</svg>
