<?xml version="1.0" encoding="utf-8"?>
<!-- Generator: Adobe Illustrator 26.0.0, SVG Export Plug-In . SVG Version: 6.00 Build 0)  -->
<svg version="1.1" id="Layer_1" xmlns="http://www.w3.org/2000/svg" xmlns:xlink="http://www.w3.org/1999/xlink" x="0px" y="0px"
	 viewBox="0 0 512 512" style="enable-background:new 0 0 512 512;" xml:space="preserve">
<style type="text/css">
	.st0{fill:#1A1A1A;}
	.st1{fill:url(#SVGID_1_);}
	.st2{fill:url(#SVGID_00000018208934088296942460000018191881518247756219_);}
</style>
<g>
	<path class="st0" d="M373.71,512H138.29C61.92,512,0,450.08,0,373.71V138.29C0,61.92,61.92,0,138.29,0h235.41
		C450.08,0,512,61.92,512,138.29v235.41C512,450.08,450.08,512,373.71,512z"/>
	<g>
		<g>
			<g>
				<g>
					<linearGradient id="SVGID_1_" gradientUnits="userSpaceOnUse" x1="260.988" y1="340.9151" x2="209.8686" y2="228.1277">
						<stop  offset="0" style="stop-color:#6D5EF9"/>
						<stop  offset="1" style="stop-color:#A78BFA"/>
					</linearGradient>
					<path class="st1" d="M353.11,273.81h-50.77l-40.58-81.15c-6.06-12.01-17.76-19.28-31.19-19.28c-13.53,0-25.13,7.27-31.19,19.28
						l-40.58,81.15h-50.77l50.77-101.44c13.63-27.35,41.18-44.41,71.76-44.41c30.58,0,58.14,17.06,71.76,44.41L353.11,273.81z"/>
				</g>
			</g>
			<g>
				<g>
					
						<linearGradient id="SVGID_00000147180093338709580680000016044937629746939299_" gradientUnits="userSpaceOnUse" x1="323.8951" y1="312.4033" x2="272.7756" y2="199.6159">
						<stop  offset="0" style="stop-color:#6D5EF9"/>
						<stop  offset="1" style="stop-color:#A78BFA"/>
					</linearGradient>
					<path style="fill:url(#SVGID_00000147180093338709580680000016044937629746939299_);" d="M403.96,273.81l-36.23,72.37
						c-11.61,23.32-35.13,37.85-61.27,37.85c-0.1,0-0.1,0-0.1,0c-26.14,0-49.66-14.53-61.27-37.85l-36.23-72.37h50.87l25.94,51.98
						c4.04,8.07,11.81,12.82,20.69,12.82h0.1c8.88,0,16.65-4.74,20.69-12.82l26.04-51.98H403.96z"/>
				</g>
			</g>
		</g>
	</g>
</g>
</svg>
