<?xml version="1.0" encoding="utf-8"?>
<!-- Generator: Adobe Illustrator 26.0.0, SVG Export Plug-In . SVG Version: 6.00 Build 0)  -->
<svg version="1.1" id="Layer_1" xmlns="http://www.w3.org/2000/svg" xmlns:xlink="http://www.w3.org/1999/xlink" x="0px" y="0px"
	 viewBox="0 0 2000 2000" style="enable-background:new 0 0 2000 2000;" xml:space="preserve">
<style type="text/css">
	.st0{fill:#FFFFFF;}
	.st1{fill:#1A1A1A;}
	.st2{fill:#6D5EF9;}
	.st3{fill:#A78BFA;}
</style>
<g>
	<g>
		<g>
			<g>
				<g>
					<path class="st0" d="M675.56,1025.02h-46.67l-37.3-74.61c-5.57-11.04-16.33-17.72-28.67-17.72c-12.43,0-23.11,6.68-28.67,17.72
						l-37.3,74.61h-46.67l46.67-93.26c12.53-25.15,37.86-40.83,65.98-40.83c28.12,0,53.45,15.68,65.98,40.83L675.56,1025.02z"/>
				</g>
			</g>
			<g>
				<g>
					<path class="st0" d="M722.3,1025.02l-33.31,66.53c-10.67,21.44-32.29,34.8-56.33,34.8c-0.09,0-0.09,0-0.09,0
						c-24.03,0-45.65-13.36-56.33-34.8l-33.31-66.53h46.77l23.85,47.79c3.71,7.42,10.86,11.78,19.02,11.78h0.09
						c8.17,0,15.31-4.36,19.02-11.78l23.94-47.79H722.3z"/>
				</g>
			</g>
		</g>
	</g>
	<g>
		<g>
			<path class="st0" d="M916.37,1010.76c-3.53-5.28-5.74-11.54-6.12-18.32c-0.97-17.2-8.07-32.6-19.08-44.19
				c-1.7-1.79-3.49-3.49-5.37-5.09c-13.21-11.27-30.6-17.67-49.31-16.61c-38.56,2.17-68.07,35.19-65.9,73.76
				c2.17,38.56,35.19,68.07,73.76,65.9c18.7-1.05,35.27-9.36,47.13-22.04c-0.2-0.2-0.38-0.4-0.57-0.59
				c-8.22-8.67-14.28-19.09-17.76-30.37c-5.78,11.21-17.18,19.17-30.66,19.93c-20.27,1.14-37.68-14.42-38.82-34.68
				c-1.14-20.27,14.42-37.68,34.68-38.82c13.48-0.76,25.7,5.87,32.7,16.36c3.53,5.28,5.74,11.54,6.12,18.32
				c0.97,17.2,8.07,32.6,19.08,44.19c1.7,1.79,3.49,3.49,5.37,5.09c11.52,9.83,26.23,15.93,42.21,16.64l3.83-33.05
				C934.74,1027.41,923.12,1020.88,916.37,1010.76z"/>
		</g>
		<path class="st0" d="M997.73,1035.28l33.52-101.77h35.68l-49.09,132.66h-40.71l-48.85-132.66h35.92L997.73,1035.28z"/>
		<path class="st0" d="M1367.51,961.53c5.35-10.37,12.61-18.36,21.79-23.95c9.18-5.59,19.43-8.38,30.77-8.38
			c9.9,0,18.56,2,25.98,5.99c7.42,3.99,13.37,9.02,17.84,15.09v-18.92h33.76v132.66h-33.76v-19.4
			c-4.31,6.23-10.26,11.37-17.84,15.44c-7.58,4.07-16.32,6.11-26.22,6.11c-11.18,0-21.35-2.87-30.53-8.62
			c-9.18-5.75-16.44-13.85-21.79-24.3c-5.35-10.45-8.02-22.47-8.02-36.04C1359.49,983.79,1362.16,971.9,1367.51,961.53z
			 M1459.1,976.73c-3.2-5.83-7.5-10.3-12.93-13.41c-5.43-3.11-11.25-4.67-17.48-4.67s-11.97,1.52-17.24,4.55
			c-5.27,3.03-9.54,7.46-12.81,13.29c-3.27,5.83-4.91,12.73-4.91,20.71c0,7.98,1.64,14.97,4.91,20.95
			c3.27,5.99,7.58,10.58,12.93,13.77c5.35,3.2,11.05,4.79,17.12,4.79c6.23,0,12.05-1.56,17.48-4.67c5.43-3.11,9.74-7.58,12.93-13.41
			c3.19-5.83,4.79-12.81,4.79-20.95S1462.3,982.56,1459.1,976.73z"/>
		<path class="st0" d="M1329.43,946.56c9.74,9.98,14.61,23.91,14.61,41.78v77.82h-33.52v-73.27c0-10.54-2.63-18.64-7.9-24.3
			c-5.27-5.66-12.45-8.5-21.55-8.5c-9.26,0-16.56,2.84-21.91,8.5c-5.35,5.67-8.02,13.77-8.02,24.3v73.27h-33.52V933.51h33.52v16.52
			c4.47-5.75,10.18-10.25,17.12-13.53c6.94-3.27,14.56-4.91,22.87-4.91C1306.92,931.59,1319.69,936.59,1329.43,946.56z"/>
		<g>
			<rect x="1516.22" y="933.51" class="st0" width="33.52" height="132.66"/>
			<path class="st0" d="M1546.79,917.71h-30.56v-44.06h33.52v41.1C1549.74,916.38,1548.42,917.71,1546.79,917.71z"/>
		</g>
		<g>
			<g>
				<path class="st0" d="M1063.39,998.96c0-40.02,30.59-67.29,70.61-67.29c39.25,0,69.33,27.02,68.06,75.19h-104.51
					c3.31,22.18,17.33,34.67,36.19,34.67c15.81,0,29.06-7.65,33.9-22.43h32.88c-6.88,28.55-32.63,48.18-67.81,48.18
					C1093.99,1067.28,1063.39,1039.49,1063.39,998.96z M1168.42,985.2c-3.32-18.86-17.08-28.55-34.15-28.55
					c-14.79,0-31.86,7.14-36.45,28.55H1168.42z"/>
			</g>
		</g>
	</g>
</g>
</svg>
