<?xml version="1.0" encoding="utf-8"?>
<!-- Generator: Adobe Illustrator 26.0.0, SVG Export Plug-In . SVG Version: 6.00 Build 0)  -->
<svg version="1.1" id="Layer_1" xmlns="http://www.w3.org/2000/svg" xmlns:xlink="http://www.w3.org/1999/xlink" x="0px" y="0px"
	 viewBox="0 0 2000 2000" style="enable-background:new 0 0 2000 2000;" xml:space="preserve">
<style type="text/css">
	.st0{fill:#FFFFFF;}
	.st1{fill:#1A1A1A;}
	.st2{fill:#6D5EF9;}
	.st3{fill:#A78BFA;}
</style>
<g>
	<g>
		<g>
			<g>
				<path class="st1" d="M1266.32,1048.86h-139.24L1015.81,826.3c-16.61-32.94-48.72-52.87-85.53-52.87
					c-37.09,0-68.93,19.93-85.54,52.87l-111.28,222.56H594.22l139.24-278.2c37.37-75.01,112.94-121.8,196.81-121.8
					c83.87,0,159.44,46.78,196.81,121.8L1266.32,1048.86z"/>
			</g>
		</g>
		<g>
			<g>
				<path class="st1" d="M1405.78,1048.86l-99.37,198.47c-31.83,63.94-96.33,103.8-168.03,103.8c-0.28,0-0.28,0-0.28,0
					c-71.69,0-136.19-39.86-168.03-103.8l-99.37-198.47h139.51l71.14,142.56c11.07,22.14,32.39,35.16,56.75,35.16h0.28
					c24.36,0,45.67-13.01,56.75-35.16l71.42-142.56H1405.78z"/>
			</g>
		</g>
	</g>
</g>
</svg>
