<?xml version="1.0" encoding="utf-8"?>
<!-- Generator: Adobe Illustrator 26.0.0, SVG Export Plug-In . SVG Version: 6.00 Build 0)  -->
<svg version="1.1" id="Layer_1" xmlns="http://www.w3.org/2000/svg" xmlns:xlink="http://www.w3.org/1999/xlink" x="0px" y="0px"
	 viewBox="0 0 32 32" style="enable-background:new 0 0 32 32;" xml:space="preserve">
<style type="text/css">
	.st0{fill:#1A1A1A;}
	.st1{fill:url(#SVGID_1_);}
	.st2{fill:url(#SVGID_00000096766838637138234930000017862802985591675269_);}
</style>
<g>
	<path class="st0" d="M16,32L16,32C7.16,32,0,24.84,0,16v0C0,7.16,7.16,0,16,0l0,0c8.84,0,16,7.16,16,16v0C32,24.84,24.84,32,16,32z
		"/>
	<g>
		<g>
			<g>
				<g>
					<linearGradient id="SVGID_1_" gradientUnits="userSpaceOnUse" x1="16.4059" y1="21.4711" x2="13.211" y2="14.4219">
						<stop  offset="0" style="stop-color:#6D5EF9"/>
						<stop  offset="1" style="stop-color:#A78BFA"/>
					</linearGradient>
					<path class="st1" d="M22.16,17.28h-3.17l-2.54-5.07c-0.38-0.75-1.11-1.2-1.95-1.2c-0.85,0-1.57,0.45-1.95,1.2l-2.54,5.07H6.85
						l3.17-6.34c0.85-1.71,2.57-2.78,4.49-2.78c1.91,0,3.63,1.07,4.49,2.78L22.16,17.28z"/>
				</g>
			</g>
			<g>
				<g>
					
						<linearGradient id="SVGID_00000046327602209021845080000013058664856226342561_" gradientUnits="userSpaceOnUse" x1="20.3376" y1="19.6891" x2="17.1427" y2="12.6399">
						<stop  offset="0" style="stop-color:#6D5EF9"/>
						<stop  offset="1" style="stop-color:#A78BFA"/>
					</linearGradient>
					<path style="fill:url(#SVGID_00000046327602209021845080000013058664856226342561_);" d="M25.34,17.28l-2.26,4.52
						c-0.73,1.46-2.2,2.37-3.83,2.37c-0.01,0-0.01,0-0.01,0c-1.63,0-3.1-0.91-3.83-2.37l-2.26-4.52h3.18l1.62,3.25
						c0.25,0.5,0.74,0.8,1.29,0.8h0.01c0.56,0,1.04-0.3,1.29-0.8l1.63-3.25H25.34z"/>
				</g>
			</g>
		</g>
	</g>
</g>
</svg>
