<?xml version="1.0" encoding="utf-8"?>
<!-- Generator: Adobe Illustrator 26.0.0, SVG Export Plug-In . SVG Version: 6.00 Build 0)  -->
<svg version="1.1" id="Layer_1" xmlns="http://www.w3.org/2000/svg" xmlns:xlink="http://www.w3.org/1999/xlink" x="0px" y="0px"
	 viewBox="0 0 2000 2000" style="enable-background:new 0 0 2000 2000;" xml:space="preserve">
<style type="text/css">
	.st0{fill:#FFFFFF;}
	.st1{fill:#1A1A1A;}
	.st2{fill:#6D5EF9;}
	.st3{fill:#A78BFA;}
</style>
<g>
	<g>
		<g>
			<g>
				<g>
					<g>
						<path class="st1" d="M1162.24,897.59h-84.82l-67.79-135.58c-10.12-20.07-29.68-32.21-52.11-32.21
							c-22.6,0-41.99,12.14-52.11,32.21l-67.79,135.58H752.8l84.82-169.48c22.77-45.7,68.8-74.2,119.9-74.2
							c51.1,0,97.13,28.5,119.9,74.2L1162.24,897.59z"/>
					</g>
				</g>
				<g>
					<g>
						<path class="st1" d="M1247.2,897.59l-60.54,120.91c-19.39,38.95-58.69,63.24-102.36,63.24c-0.17,0-0.17,0-0.17,0
							c-43.68,0-82.97-24.28-102.36-63.24l-60.54-120.91h84.99l43.34,86.85c6.74,13.49,19.73,21.42,34.57,21.42h0.17
							c14.84,0,27.82-7.93,34.57-21.42l43.51-86.85H1247.2z"/>
					</g>
				</g>
			</g>
		</g>
		<g>
			<g>
				<path class="st1" d="M736.22,1284.92c-3.82-5.71-6.21-12.48-6.62-19.83c-1.05-18.62-8.74-35.28-20.64-47.83
					c-1.84-1.94-3.78-3.78-5.81-5.51c-14.29-12.19-33.12-19.12-53.36-17.98c-41.73,2.35-73.67,38.08-71.32,79.82
					c2.35,41.73,38.08,73.67,79.82,71.32c20.24-1.14,38.17-10.13,51.01-23.85c-0.21-0.21-0.42-0.43-0.62-0.64
					c-8.9-9.38-15.45-20.66-19.22-32.87c-6.26,12.13-18.59,20.75-33.18,21.57c-21.93,1.23-40.78-15.61-42.01-37.54
					c-1.23-21.93,15.6-40.78,37.54-42.01c14.59-0.82,27.81,6.36,35.39,17.71c3.82,5.71,6.21,12.48,6.62,19.83
					c1.05,18.62,8.74,35.28,20.64,47.83c1.84,1.94,3.78,3.78,5.81,5.51c12.47,10.63,28.38,17.24,45.68,18.01l4.15-35.77
					C756.1,1302.94,743.53,1295.88,736.22,1284.92z"/>
			</g>
			<path class="st1" d="M824.27,1311.46l36.28-110.13h38.61l-53.12,143.56h-44.05l-52.86-143.56h38.87L824.27,1311.46z"/>
			<path class="st1" d="M1224.45,1231.65c5.79-11.23,13.64-19.86,23.58-25.91c9.93-6.05,21.03-9.07,33.3-9.07
				c10.71,0,20.08,2.16,28.12,6.48c8.03,4.32,14.47,9.76,19.31,16.33v-20.47h36.54v143.56h-36.54v-20.99
				c-4.66,6.74-11.1,12.31-19.31,16.71c-8.21,4.41-17.67,6.61-28.38,6.61c-12.09,0-23.11-3.11-33.04-9.33
				c-9.94-6.22-17.79-14.99-23.58-26.3c-5.79-11.31-8.68-24.31-8.68-39C1215.77,1255.74,1218.66,1242.88,1224.45,1231.65z
				 M1323.57,1248.1c-3.46-6.3-8.12-11.14-13.99-14.51c-5.87-3.37-12.18-5.05-18.92-5.05s-12.96,1.64-18.66,4.92
				c-5.7,3.28-10.33,8.08-13.86,14.38c-3.54,6.31-5.31,13.78-5.31,22.41c0,8.64,1.77,16.2,5.31,22.67
				c3.54,6.48,8.2,11.45,13.99,14.9c5.79,3.46,11.96,5.18,18.53,5.18c6.74,0,13.04-1.68,18.92-5.05c5.87-3.37,10.54-8.2,13.99-14.51
				c3.45-6.3,5.18-13.86,5.18-22.67S1327.02,1254.41,1323.57,1248.1z"/>
			<path class="st1" d="M1183.23,1215.45c10.54,10.8,15.81,25.87,15.81,45.22v84.22h-36.28v-79.29c0-11.4-2.85-20.17-8.55-26.3
				c-5.7-6.13-13.47-9.2-23.32-9.2c-10.02,0-17.92,3.07-23.71,9.2c-5.79,6.13-8.68,14.9-8.68,26.3v79.29h-36.28v-143.56h36.28v17.88
				c4.84-6.22,11.01-11.1,18.53-14.64c7.51-3.54,15.76-5.31,24.75-5.31C1158.88,1199.25,1172.69,1204.65,1183.23,1215.45z"/>
			<g>
				<rect x="1385.38" y="1201.33" class="st1" width="36.28" height="143.56"/>
				<path class="st1" d="M1418.7,1184.22h-33.32v-47.68h36.28v44.72C1421.66,1182.9,1420.33,1184.22,1418.7,1184.22z"/>
			</g>
			<g>
				<g>
					<path class="st1" d="M895.33,1272.16c0-43.31,33.11-72.82,76.41-72.82c42.48,0,75.03,29.24,73.65,81.37H932.3
						c3.58,24,18.76,37.52,39.17,37.52c17.11,0,31.45-8.28,36.69-24.27h35.59c-7.45,30.89-35.31,52.14-73.38,52.14
						C928.44,1346.09,895.33,1316.02,895.33,1272.16z M1008.99,1257.26c-3.59-20.41-18.48-30.9-36.96-30.9
						c-16,0-34.48,7.72-39.45,30.9H1008.99z"/>
				</g>
			</g>
		</g>
	</g>
</g>
</svg>
