<?xml version="1.0" encoding="utf-8"?>
<!-- Generator: Adobe Illustrator 26.0.0, SVG Export Plug-In . SVG Version: 6.00 Build 0)  -->
<svg version="1.1" id="Layer_1" xmlns="http://www.w3.org/2000/svg" xmlns:xlink="http://www.w3.org/1999/xlink" x="0px" y="0px"
	 viewBox="0 0 2000 2000" style="enable-background:new 0 0 2000 2000;" xml:space="preserve">
<style type="text/css">
	.st0{fill:#FFFFFF;}
	.st1{fill:#1A1A1A;}
	.st2{fill:#6D5EF9;}
	.st3{fill:#A78BFA;}
	.st4{fill:url(#SVGID_1_);}
	.st5{fill:url(#SVGID_00000062183040098041403540000014168349572232458923_);}
	.st6{fill:url(#SVGID_00000166661700512233727880000011108746227279167628_);}
	.st7{fill:url(#SVGID_00000052073747365016570710000010573279018096205747_);}
	.st8{fill:url(#SVGID_00000107584902111963401300000000880148836492094645_);}
	.st9{fill:url(#SVGID_00000155862527772544522180000000954114982970016417_);}
	.st10{fill:url(#SVGID_00000046334217025311759240000007981907427712675478_);}
	.st11{fill:url(#SVGID_00000085228156374287698960000015374421398424929954_);}
	.st12{fill:url(#SVGID_00000093159281850974328650000003367379216630386100_);}
</style>
<g>
	<g>
		<g>
			<linearGradient id="SVGID_1_" gradientUnits="userSpaceOnUse" x1="600.9251" y1="1268.4093" x2="1397.9614" y2="1268.4093">
				<stop  offset="0" style="stop-color:#A78BFA"/>
				<stop  offset="1" style="stop-color:#6D5EF9"/>
			</linearGradient>
			<path class="st4" d="M737.14,1283.93c-3.81-5.69-6.19-12.44-6.6-19.76c-1.04-18.55-8.71-35.16-20.57-47.66
				c-1.83-1.93-3.77-3.77-5.79-5.49c-14.24-12.15-33.01-19.05-53.18-17.92c-41.59,2.34-73.41,37.95-71.07,79.54
				c2.34,41.59,37.95,73.41,79.54,71.07c20.17-1.13,38.04-10.09,50.83-23.77c-0.21-0.21-0.42-0.43-0.62-0.64
				c-8.87-9.35-15.39-20.58-19.15-32.76c-6.24,12.09-18.53,20.67-33.06,21.49c-21.86,1.23-40.63-15.55-41.86-37.41
				c-1.23-21.85,15.55-40.63,37.41-41.86c14.54-0.82,27.71,6.33,35.27,17.65c3.81,5.69,6.19,12.44,6.6,19.76
				c1.04,18.55,8.71,35.16,20.57,47.66c1.83,1.93,3.77,3.77,5.79,5.49c12.42,10.6,28.28,17.18,45.52,17.94l4.13-35.64
				C756.95,1301.89,744.42,1294.85,737.14,1283.93z"/>
		</g>
		
			<linearGradient id="SVGID_00000078758386902260694980000000546388242840391563_" gradientUnits="userSpaceOnUse" x1="600.9251" y1="1272.1573" x2="1397.9614" y2="1272.1573">
			<stop  offset="0" style="stop-color:#A78BFA"/>
			<stop  offset="1" style="stop-color:#6D5EF9"/>
		</linearGradient>
		<path style="fill:url(#SVGID_00000078758386902260694980000000546388242840391563_);" d="M824.88,1310.38l36.15-109.75h38.48
			l-52.94,143.06h-43.9l-52.68-143.06h38.73L824.88,1310.38z"/>
		
			<linearGradient id="SVGID_00000093166925498291860540000013961028427917177022_" gradientUnits="userSpaceOnUse" x1="600.9251" y1="1269.8336" x2="1397.9614" y2="1269.8336">
			<stop  offset="0" style="stop-color:#A78BFA"/>
			<stop  offset="1" style="stop-color:#6D5EF9"/>
		</linearGradient>
		<path style="fill:url(#SVGID_00000093166925498291860540000013961028427917177022_);" d="M1223.67,1230.84
			c5.77-11.19,13.6-19.79,23.5-25.82c9.9-6.02,20.96-9.04,33.18-9.04c10.67,0,20.01,2.16,28.02,6.46
			c8.01,4.31,14.42,9.73,19.24,16.27v-20.4h36.41v143.06h-36.41v-20.92c-4.65,6.71-11.06,12.27-19.24,16.66
			c-8.18,4.39-17.6,6.58-28.28,6.58c-12.05,0-23.03-3.1-32.92-9.3c-9.9-6.2-17.73-14.93-23.5-26.21
			c-5.77-11.27-8.65-24.23-8.65-38.86C1215.02,1254.86,1217.9,1242.03,1223.67,1230.84z M1322.44,1247.24
			c-3.45-6.28-8.09-11.1-13.94-14.46c-5.85-3.36-12.14-5.04-18.85-5.04s-12.91,1.64-18.59,4.91c-5.68,3.27-10.29,8.05-13.82,14.33
			c-3.53,6.29-5.29,13.73-5.29,22.34c0,8.61,1.76,16.14,5.29,22.6c3.53,6.46,8.18,11.41,13.94,14.85
			c5.77,3.45,11.92,5.16,18.46,5.16c6.71,0,13-1.68,18.85-5.04c5.85-3.36,10.5-8.18,13.94-14.46c3.44-6.28,5.17-13.82,5.17-22.6
			S1325.89,1253.52,1322.44,1247.24z"/>
		
			<linearGradient id="SVGID_00000025414285942058586900000017621897002135237285_" gradientUnits="userSpaceOnUse" x1="600.9251" y1="1271.1243" x2="1397.9614" y2="1271.1243">
			<stop  offset="0" style="stop-color:#A78BFA"/>
			<stop  offset="1" style="stop-color:#6D5EF9"/>
		</linearGradient>
		<path style="fill:url(#SVGID_00000025414285942058586900000017621897002135237285_);" d="M1182.6,1214.7
			c10.5,10.76,15.75,25.78,15.75,45.06v83.93h-36.15v-79.02c0-11.36-2.84-20.1-8.52-26.21c-5.68-6.11-13.43-9.17-23.24-9.17
			c-9.99,0-17.86,3.06-23.63,9.17c-5.77,6.11-8.65,14.85-8.65,26.21v79.02H1062v-143.06h36.15v17.82
			c4.82-6.2,10.98-11.06,18.46-14.59c7.49-3.53,15.71-5.29,24.66-5.29C1158.32,1198.56,1172.1,1203.94,1182.6,1214.7z"/>
		<g>
			
				<linearGradient id="SVGID_00000112610589186176065000000003436733721103607442_" gradientUnits="userSpaceOnUse" x1="600.9251" y1="1272.1573" x2="1397.9614" y2="1272.1573">
				<stop  offset="0" style="stop-color:#A78BFA"/>
				<stop  offset="1" style="stop-color:#6D5EF9"/>
			</linearGradient>
			
				<rect x="1384.04" y="1200.63" style="fill:url(#SVGID_00000112610589186176065000000003436733721103607442_);" width="36.15" height="143.06"/>
			
				<linearGradient id="SVGID_00000049207325866674126720000000766801121799379594_" gradientUnits="userSpaceOnUse" x1="600.9251" y1="1159.8273" x2="1397.9614" y2="1159.8273">
				<stop  offset="0" style="stop-color:#A78BFA"/>
				<stop  offset="1" style="stop-color:#6D5EF9"/>
			</linearGradient>
			<path style="fill:url(#SVGID_00000049207325866674126720000000766801121799379594_);" d="M1417.24,1183.58h-33.19v-47.51h36.15
				v44.56C1420.19,1182.26,1418.87,1183.58,1417.24,1183.58z"/>
		</g>
		<g>
			<g>
				
					<linearGradient id="SVGID_00000049187441673444451930000016797998276270898062_" gradientUnits="userSpaceOnUse" x1="600.9251" y1="1271.7639" x2="1397.9614" y2="1271.7639">
					<stop  offset="0" style="stop-color:#A78BFA"/>
					<stop  offset="1" style="stop-color:#6D5EF9"/>
				</linearGradient>
				<path style="fill:url(#SVGID_00000049187441673444451930000016797998276270898062_);" d="M895.7,1271.21
					c0-43.16,32.99-72.57,76.15-72.57c42.33,0,74.77,29.14,73.4,81.09h-112.7c3.57,23.92,18.69,37.39,39.03,37.39
					c17.05,0,31.34-8.25,36.56-24.19h35.46c-7.42,30.79-35.19,51.96-73.13,51.96C928.69,1344.89,895.7,1314.92,895.7,1271.21z
					 M1008.95,1256.37c-3.58-20.34-18.42-30.79-36.83-30.79c-15.95,0-34.36,7.7-39.31,30.79H1008.95z"/>
			</g>
		</g>
	</g>
	<g>
		<g>
			<g>
				<g>
					
						<linearGradient id="SVGID_00000077297344413301049060000002071888668029465232_" gradientUnits="userSpaceOnUse" x1="1008.3048" y1="1009.6611" x2="923.194" y2="821.8771">
						<stop  offset="0" style="stop-color:#6D5EF9"/>
						<stop  offset="1" style="stop-color:#A78BFA"/>
					</linearGradient>
					<path style="fill:url(#SVGID_00000077297344413301049060000002071888668029465232_);" d="M1161.68,897.94h-84.53l-67.56-135.11
						c-10.08-20-29.58-32.1-51.93-32.1c-22.52,0-41.84,12.1-51.93,32.1l-67.56,135.11h-84.53l84.53-168.89
						c22.69-45.54,68.56-73.94,119.48-73.94c50.92,0,96.79,28.4,119.48,73.94L1161.68,897.94z"/>
				</g>
			</g>
			<g>
				<g>
					
						<linearGradient id="SVGID_00000083066243638634277920000006391204424328932001_" gradientUnits="userSpaceOnUse" x1="1113.041" y1="962.1907" x2="1027.9303" y2="774.4067">
						<stop  offset="0" style="stop-color:#6D5EF9"/>
						<stop  offset="1" style="stop-color:#A78BFA"/>
					</linearGradient>
					<path style="fill:url(#SVGID_00000083066243638634277920000006391204424328932001_);" d="M1246.34,897.94l-60.33,120.49
						c-19.33,38.82-58.48,63.02-102.01,63.02c-0.17,0-0.17,0-0.17,0c-43.52,0-82.68-24.2-102.01-63.02L921.5,897.94h84.7
						l43.19,86.54c6.72,13.44,19.66,21.34,34.45,21.34h0.17c14.79,0,27.73-7.9,34.45-21.34l43.36-86.54H1246.34z"/>
				</g>
			</g>
		</g>
	</g>
</g>
</svg>
